<?xml version="1.0" encoding="UTF-8"?>
<svg xmlns="http://www.w3.org/2000/svg" xmlns:xlink="http://www.w3.org/1999/xlink" width="75pt" height="75pt" viewBox="0 0 75 75" version="1.1">
<g id="surface1">
<path style=" stroke:none;fill-rule:nonzero;fill:#333333;" d="M 73.546875 15.074219 C 73.542969 15.074219 73.535156 15.074219 73.53125 15.074219 L 68.601562 15.074219 L 68.601562 13.386719 C 68.628906 12.71875 68.199219 12.117188 67.558594 11.933594 C 64.136719 11.035156 60.613281 10.585938 57.074219 10.59375 C 51.261719 10.59375 43.335938 11.902344 37.476562 17.863281 C 31.664062 11.84375 23.683594 10.59375 17.882812 10.59375 C 14.34375 10.585938 10.820312 11.035156 7.398438 11.933594 C 6.757812 12.117188 6.328125 12.71875 6.351562 13.386719 L 6.351562 15.058594 L 1.453125 15.058594 C 0.652344 15.058594 0 15.710938 0 16.511719 L 0 62.945312 C 0 63.75 0.652344 64.398438 1.453125 64.398438 C 1.703125 64.398438 1.949219 64.332031 2.167969 64.210938 C 2.3125 64.136719 16.847656 56.183594 37.144531 61.300781 L 37.492188 61.300781 C 37.609375 61.316406 37.726562 61.316406 37.839844 61.300781 C 58.195312 56.140625 72.730469 64.078125 72.820312 64.210938 C 73.269531 64.46875 73.824219 64.46875 74.273438 64.210938 C 74.71875 63.953125 74.996094 63.476562 75 62.960938 L 75 16.527344 C 75 15.722656 74.347656 15.074219 73.546875 15.074219 Z M 2.90625 60.632812 L 2.90625 17.980469 L 6.382812 17.980469 L 6.382812 54.441406 C 6.371094 55.242188 7.015625 55.902344 7.820312 55.910156 C 7.898438 55.910156 7.976562 55.90625 8.054688 55.894531 C 11.0625 55.433594 14.097656 55.191406 17.140625 55.167969 C 21.355469 55.09375 25.550781 55.726562 29.554688 57.042969 C 20.511719 55.949219 11.339844 57.183594 2.90625 60.632812 Z M 17.140625 52.273438 C 14.496094 52.28125 11.855469 52.449219 9.230469 52.785156 L 9.230469 14.535156 C 12.0625 13.902344 14.953125 13.582031 17.851562 13.574219 C 23.289062 13.574219 30.789062 14.824219 35.996094 20.699219 L 36.039062 56.914062 C 33.015625 54.933594 27.113281 52.273438 17.140625 52.273438 Z M 38.945312 20.699219 C 44.152344 14.882812 51.652344 13.574219 57.089844 13.574219 C 59.988281 13.582031 62.878906 13.90625 65.710938 14.535156 L 65.710938 52.785156 C 63.101562 52.449219 60.476562 52.273438 57.84375 52.261719 C 47.929688 52.261719 42.015625 54.921875 38.945312 56.898438 Z M 72.078125 60.632812 C 63.628906 57.175781 54.433594 55.941406 45.371094 57.042969 C 49.394531 55.722656 53.613281 55.089844 57.84375 55.167969 C 60.90625 55.183594 63.960938 55.421875 66.988281 55.878906 C 67.785156 56 68.523438 55.453125 68.644531 54.660156 C 68.65625 54.582031 68.664062 54.503906 68.660156 54.425781 L 68.660156 17.980469 L 72.136719 17.980469 Z M 72.078125 60.632812 "/>
</g>
</svg>