<?xml version="1.0" encoding="UTF-8"?>
<svg xmlns="http://www.w3.org/2000/svg" xmlns:xlink="http://www.w3.org/1999/xlink" width="75pt" height="75pt" viewBox="0 0 75 75" version="1.1">
<g id="surface1">
<path style=" stroke:none;fill-rule:nonzero;fill:#333333;" d="M 71.824219 0 L 68.113281 0 C 67.230469 0 66.515625 0.714844 66.515625 1.597656 L 66.515625 3.582031 C 66.515625 4.464844 65.804688 5.175781 64.921875 5.175781 L 61.460938 5.175781 C 60.578125 5.175781 59.867188 4.464844 59.867188 3.582031 L 59.867188 1.597656 C 59.867188 0.714844 59.152344 0 58.269531 0 L 16.605469 0 C 15.722656 0 15.007812 0.714844 15.007812 1.597656 L 15.007812 3.582031 C 15.007812 4.464844 14.296875 5.175781 13.414062 5.175781 L 9.953125 5.175781 C 9.070312 5.175781 8.359375 4.464844 8.359375 3.582031 L 8.359375 1.597656 C 8.359375 0.714844 7.644531 0 6.761719 0 L 3.175781 0 C 2.292969 0 1.578125 0.714844 1.578125 1.597656 L 1.578125 73.402344 C 1.578125 74.285156 2.292969 75 3.175781 75 L 6.761719 75 C 7.644531 75 8.359375 74.285156 8.359375 73.402344 L 8.359375 71.945312 C 8.359375 71.0625 9.070312 70.347656 9.953125 70.347656 L 13.414062 70.347656 C 14.296875 70.347656 15.007812 71.0625 15.007812 71.945312 L 15.007812 73.402344 C 15.007812 74.285156 15.722656 75 16.605469 75 L 58.269531 75 C 59.152344 75 59.867188 74.285156 59.867188 73.402344 L 59.867188 71.945312 C 59.867188 71.0625 60.578125 70.347656 61.460938 70.347656 L 64.921875 70.347656 C 65.804688 70.347656 66.515625 71.0625 66.515625 71.945312 L 66.515625 73.402344 C 66.515625 74.285156 67.230469 75 68.113281 75 L 71.824219 75 C 72.707031 75 73.421875 74.285156 73.421875 73.402344 L 73.421875 1.597656 C 73.421875 0.714844 72.707031 0 71.824219 0 Z M 15.007812 61.066406 C 15.007812 61.949219 14.296875 62.664062 13.414062 62.664062 L 9.953125 62.664062 C 9.070312 62.664062 8.359375 61.949219 8.359375 61.066406 L 8.359375 57.605469 C 8.359375 56.726562 9.070312 56.011719 9.953125 56.011719 L 13.414062 56.011719 C 14.296875 56.011719 15.007812 56.726562 15.007812 57.605469 Z M 15.007812 46.726562 C 15.007812 47.609375 14.296875 48.324219 13.414062 48.324219 L 9.953125 48.324219 C 9.070312 48.324219 8.359375 47.609375 8.359375 46.726562 L 8.359375 43.265625 C 8.359375 42.386719 9.070312 41.671875 9.953125 41.671875 L 13.414062 41.671875 C 14.296875 41.671875 15.007812 42.386719 15.007812 43.265625 Z M 15.007812 32.386719 C 15.007812 33.269531 14.296875 33.984375 13.414062 33.984375 L 9.953125 33.984375 C 9.070312 33.984375 8.359375 33.269531 8.359375 32.386719 L 8.359375 28.929688 C 8.359375 28.046875 9.070312 27.332031 9.953125 27.332031 L 13.414062 27.332031 C 14.296875 27.332031 15.007812 28.046875 15.007812 28.929688 Z M 15.007812 18.050781 C 15.007812 18.929688 14.296875 19.644531 13.414062 19.644531 L 9.953125 19.644531 C 9.070312 19.644531 8.359375 18.929688 8.359375 18.050781 L 8.359375 14.589844 C 8.359375 13.707031 9.070312 12.992188 9.953125 12.992188 L 13.414062 12.992188 C 14.296875 12.992188 15.007812 13.707031 15.007812 14.589844 Z M 52.964844 66.5625 C 52.964844 67.445312 52.25 68.160156 51.371094 68.160156 L 23.628906 68.160156 C 22.75 68.160156 22.035156 67.445312 22.035156 66.5625 L 22.035156 53.742188 C 22.035156 52.859375 22.75 52.144531 23.628906 52.144531 L 51.371094 52.144531 C 52.25 52.144531 52.964844 52.859375 52.964844 53.742188 Z M 52.964844 43.910156 C 52.964844 44.792969 52.25 45.507812 51.371094 45.507812 L 23.628906 45.507812 C 22.75 45.507812 22.035156 44.792969 22.035156 43.910156 L 22.035156 31.089844 C 22.035156 30.207031 22.75 29.492188 23.628906 29.492188 L 51.371094 29.492188 C 52.25 29.492188 52.964844 30.207031 52.964844 31.089844 Z M 52.964844 21.257812 C 52.964844 22.140625 52.25 22.855469 51.371094 22.855469 L 23.628906 22.855469 C 22.75 22.855469 22.035156 22.140625 22.035156 21.257812 L 22.035156 8.4375 C 22.035156 7.554688 22.75 6.839844 23.628906 6.839844 L 51.371094 6.839844 C 52.25 6.839844 52.964844 7.554688 52.964844 8.4375 Z M 66.515625 61.066406 C 66.515625 61.949219 65.804688 62.664062 64.921875 62.664062 L 61.460938 62.664062 C 60.578125 62.664062 59.867188 61.949219 59.867188 61.066406 L 59.867188 57.605469 C 59.867188 56.726562 60.578125 56.011719 61.460938 56.011719 L 64.921875 56.011719 C 65.804688 56.011719 66.515625 56.726562 66.515625 57.605469 Z M 66.515625 46.726562 C 66.515625 47.609375 65.804688 48.324219 64.921875 48.324219 L 61.460938 48.324219 C 60.578125 48.324219 59.867188 47.609375 59.867188 46.726562 L 59.867188 43.265625 C 59.867188 42.386719 60.578125 41.671875 61.460938 41.671875 L 64.921875 41.671875 C 65.804688 41.671875 66.515625 42.386719 66.515625 43.265625 Z M 66.515625 32.386719 C 66.515625 33.269531 65.804688 33.984375 64.921875 33.984375 L 61.460938 33.984375 C 60.578125 33.984375 59.867188 33.269531 59.867188 32.386719 L 59.867188 28.929688 C 59.867188 28.046875 60.578125 27.332031 61.460938 27.332031 L 64.921875 27.332031 C 65.804688 27.332031 66.515625 28.046875 66.515625 28.929688 Z M 66.515625 18.050781 C 66.515625 18.929688 65.804688 19.644531 64.921875 19.644531 L 61.460938 19.644531 C 60.578125 19.644531 59.867188 18.929688 59.867188 18.050781 L 59.867188 14.589844 C 59.867188 13.707031 60.578125 12.992188 61.460938 12.992188 L 64.921875 12.992188 C 65.804688 12.992188 66.515625 13.707031 66.515625 14.589844 Z M 66.515625 18.050781 "/>
</g>
</svg>
