<?xml version="1.0" encoding="UTF-8"?>
<svg xmlns="http://www.w3.org/2000/svg" xmlns:xlink="http://www.w3.org/1999/xlink" width="75pt" height="74pt" viewBox="0 0 75 74" version="1.1">
<g id="surface1">
<path style=" stroke:none;fill-rule:nonzero;fill:#333333;" d="M 71.269531 16.273438 L 71.269531 2.09375 C 71.269531 1.425781 70.941406 0.792969 70.40625 0.40625 C 69.855469 0.0195312 69.148438 -0.105469 68.507812 0.0976562 L 25.652344 13.515625 C 24.773438 13.796875 24.175781 14.601562 24.175781 15.515625 L 24.175781 56.863281 C 21.929688 55.332031 19.054688 54.492188 16.042969 54.492188 C 12.855469 54.492188 9.824219 55.4375 7.515625 57.140625 C 5.035156 58.984375 3.667969 61.476562 3.667969 64.183594 C 3.667969 66.894531 5.035156 69.386719 7.515625 71.230469 C 9.824219 72.929688 12.839844 73.875 16.042969 73.875 C 19.246094 73.875 22.261719 72.929688 24.570312 71.230469 C 27.050781 69.386719 28.417969 66.894531 28.417969 64.183594 L 28.417969 31.242188 L 67.03125 19.136719 L 67.03125 43.378906 C 64.785156 41.847656 61.910156 41.011719 58.894531 41.011719 C 55.707031 41.011719 52.675781 41.957031 50.367188 43.65625 C 47.886719 45.5 46.519531 47.992188 46.519531 50.699219 C 46.519531 53.410156 47.886719 55.902344 50.367188 57.746094 C 52.675781 59.449219 55.691406 60.394531 58.894531 60.394531 C 62.097656 60.394531 65.113281 59.449219 67.421875 57.746094 C 69.902344 55.902344 71.269531 53.410156 71.269531 50.699219 L 71.269531 16.289062 C 71.269531 16.273438 71.269531 16.273438 71.269531 16.273438 Z M 16.042969 69.695312 C 11.628906 69.695312 7.90625 67.171875 7.90625 64.183594 C 7.90625 61.199219 11.628906 58.671875 16.042969 58.671875 C 20.453125 58.671875 24.175781 61.199219 24.175781 64.183594 C 24.175781 67.1875 20.453125 69.695312 16.042969 69.695312 Z M 28.417969 26.847656 L 28.417969 17.03125 L 67.03125 4.941406 L 67.03125 14.753906 Z M 58.910156 56.210938 C 54.5 56.210938 50.777344 53.6875 50.777344 50.699219 C 50.777344 47.714844 54.5 45.191406 58.910156 45.191406 C 63.324219 45.191406 67.042969 47.714844 67.042969 50.699219 C 67.03125 53.6875 63.308594 56.210938 58.910156 56.210938 Z M 58.910156 56.210938 "/>
</g>
</svg>
