<?xml version="1.0" encoding="UTF-8"?>
<svg xmlns="http://www.w3.org/2000/svg" xmlns:xlink="http://www.w3.org/1999/xlink" width="75pt" height="75pt" viewBox="0 0 75 75" version="1.1">
<g id="surface1">
<path style=" stroke:none;fill-rule:nonzero;fill:#333333;" d="M 65.039062 75 C 65.6875 75 66.210938 74.476562 66.210938 73.828125 L 66.210938 1.171875 C 66.210938 0.523438 65.6875 0 65.039062 0 L 15.820312 0 C 11.941406 0 8.789062 3.152344 8.789062 7.03125 L 8.789062 67.96875 C 8.789062 71.847656 11.941406 75 15.820312 75 Z M 63.867188 60.9375 L 19.335938 60.9375 L 19.335938 2.34375 L 63.867188 2.34375 Z M 61.523438 63.28125 L 63.867188 63.28125 L 63.867188 72.65625 L 61.523438 72.65625 Z M 15.820312 2.34375 L 16.992188 2.34375 L 16.992188 60.9375 L 15.820312 60.9375 C 14.019531 60.9375 12.378906 61.625 11.132812 62.742188 L 11.132812 7.03125 C 11.132812 4.445312 13.234375 2.34375 15.820312 2.34375 Z M 11.132812 67.96875 C 11.132812 65.382812 13.234375 63.28125 15.820312 63.28125 L 59.179688 63.28125 L 59.179688 66.800781 L 15.820312 66.800781 C 15.171875 66.800781 14.648438 67.324219 14.648438 67.972656 C 14.648438 68.617188 15.171875 69.144531 15.820312 69.144531 L 59.179688 69.144531 L 59.179688 72.65625 L 15.820312 72.65625 C 13.234375 72.65625 11.132812 70.554688 11.132812 67.96875 Z M 11.132812 67.96875 "/>
<path style=" stroke:none;fill-rule:nonzero;fill:#333333;" d="M 25.199219 19.921875 C 25.199219 23.398438 27.738281 26.285156 31.058594 26.84375 L 31.058594 37.496094 C 31.058594 38.144531 31.582031 38.667969 32.230469 38.667969 L 50.980469 38.667969 C 51.628906 38.667969 52.152344 38.144531 52.152344 37.496094 L 52.152344 26.84375 C 55.46875 26.285156 58.007812 23.398438 58.007812 19.921875 C 58.007812 16.042969 54.855469 12.890625 50.976562 12.890625 L 48.324219 12.890625 C 46.839844 10.765625 44.382812 9.375 41.605469 9.375 C 38.824219 9.375 36.367188 10.765625 34.882812 12.890625 L 32.230469 12.890625 C 28.351562 12.890625 25.199219 16.042969 25.199219 19.921875 Z M 33.402344 35.15625 L 49.808594 35.15625 L 49.808594 36.324219 L 33.402344 36.324219 Z M 32.230469 15.234375 L 33.746094 15.234375 C 33.523438 15.976562 33.402344 16.761719 33.402344 17.578125 C 33.402344 18.226562 33.925781 18.75 34.574219 18.75 C 35.222656 18.75 35.746094 18.226562 35.746094 17.578125 C 35.746094 14.347656 38.375 11.71875 41.605469 11.71875 C 44.835938 11.71875 47.464844 14.347656 47.464844 17.578125 C 47.464844 18.226562 47.988281 18.75 48.636719 18.75 C 49.28125 18.75 49.808594 18.226562 49.808594 17.578125 C 49.808594 16.761719 49.683594 15.976562 49.460938 15.234375 L 50.976562 15.234375 C 53.5625 15.234375 55.664062 17.335938 55.664062 19.921875 C 55.664062 22.503906 53.566406 24.601562 50.988281 24.605469 C 50.984375 24.605469 50.984375 24.605469 50.980469 24.605469 C 50.65625 24.605469 50.363281 24.738281 50.148438 24.949219 C 49.9375 25.164062 49.804688 25.457031 49.804688 25.78125 C 49.804688 25.785156 49.808594 25.785156 49.808594 25.792969 L 49.808594 32.8125 L 33.402344 32.8125 L 33.402344 25.785156 C 33.402344 25.785156 33.402344 25.78125 33.402344 25.78125 C 33.402344 25.617188 33.371094 25.460938 33.308594 25.320312 C 33.132812 24.902344 32.714844 24.605469 32.230469 24.605469 C 32.226562 24.605469 32.222656 24.605469 32.222656 24.605469 C 29.640625 24.601562 27.542969 22.503906 27.542969 19.921875 C 27.542969 17.335938 29.644531 15.234375 32.230469 15.234375 Z M 32.230469 15.234375 "/>
<path style=" stroke:none;fill-rule:nonzero;fill:#333333;" d="M 54.492188 43.359375 L 28.71875 43.359375 C 28.070312 43.359375 27.546875 43.882812 27.546875 44.53125 C 27.546875 45.179688 28.070312 45.703125 28.71875 45.703125 L 54.492188 45.703125 C 55.140625 45.703125 55.664062 45.179688 55.664062 44.53125 C 55.664062 43.882812 55.140625 43.359375 54.492188 43.359375 Z M 54.492188 43.359375 "/>
<path style=" stroke:none;fill-rule:nonzero;fill:#333333;" d="M 54.492188 46.875 L 28.71875 46.875 C 28.070312 46.875 27.546875 47.398438 27.546875 48.046875 C 27.546875 48.695312 28.070312 49.21875 28.71875 49.21875 L 54.492188 49.21875 C 55.140625 49.21875 55.664062 48.695312 55.664062 48.046875 C 55.664062 47.398438 55.140625 46.875 54.492188 46.875 Z M 54.492188 46.875 "/>
<path style=" stroke:none;fill-rule:nonzero;fill:#333333;" d="M 48.632812 50.421875 L 34.574219 50.421875 C 33.925781 50.421875 33.402344 50.945312 33.402344 51.59375 C 33.402344 52.238281 33.925781 52.765625 34.574219 52.765625 L 48.632812 52.765625 C 49.28125 52.765625 49.804688 52.238281 49.804688 51.59375 C 49.804688 50.945312 49.28125 50.421875 48.632812 50.421875 Z M 48.632812 50.421875 "/>
</g>
</svg>
