<?xml version="1.0" encoding="UTF-8"?>
<svg xmlns="http://www.w3.org/2000/svg" xmlns:xlink="http://www.w3.org/1999/xlink" width="75pt" height="75pt" viewBox="0 0 75 75" version="1.1">
<g id="surface1">
<path style=" stroke:none;fill-rule:nonzero;fill:#333333;" d="M 64.054688 4.703125 C 53.652344 4.324219 46.628906 10.289062 42.921875 22.496094 C 44.828125 21.644531 46.679688 21.261719 48.476562 21.261719 C 52.285156 21.261719 53.96875 23.441406 53.519531 27.769531 C 53.292969 30.390625 51.617188 34.203125 48.480469 39.21875 C 45.328125 44.234375 42.972656 46.746094 41.402344 46.746094 C 36.648438 46.746094 33.789062 23.984375 32.820312 17.769531 C 31.472656 9.128906 27.882812 5.085938 22.046875 5.652344 C 16.691406 6.164062 7.34375 15.804688 0 22.34375 L 3.527344 26.945312 C 6.886719 24.5625 8.847656 23.367188 9.40625 23.367188 C 15.253906 23.367188 18.085938 43.265625 22.625 58.0625 C 25.671875 66.226562 29.324219 70.3125 33.726562 70.3125 C 40.804688 70.3125 49.421875 63.613281 59.632812 50.207031 C 69.492188 37.371094 74.601562 27.257812 74.929688 19.878906 L 74.96875 19.847656 C 75.386719 9.957031 71.777344 4.894531 64.054688 4.703125 Z M 64.054688 4.703125 "/>
</g>
</svg>
