<?xml version="1.0" encoding="UTF-8"?>
<svg xmlns="http://www.w3.org/2000/svg" xmlns:xlink="http://www.w3.org/1999/xlink" width="75pt" height="75pt" viewBox="0 0 75 75" version="1.1">
<g id="surface1">
<path style=" stroke:none;fill-rule:nonzero;fill:#333333;" d="M 71.8125 16.6875 C 69.777344 13.070312 67.570312 12.402344 63.074219 12.148438 C 58.585938 11.84375 47.292969 11.71875 37.507812 11.71875 C 27.707031 11.71875 16.410156 11.84375 11.925781 12.144531 C 7.4375 12.402344 5.226562 13.0625 3.171875 16.6875 C 1.078125 20.300781 0 26.527344 0 37.484375 C 0 37.496094 0 37.5 0 37.5 C 0 37.507812 0 37.515625 0 37.515625 L 0 37.523438 C 0 48.4375 1.078125 54.707031 3.171875 58.285156 C 5.226562 61.902344 7.433594 62.558594 11.921875 62.863281 C 16.410156 63.125 27.707031 63.28125 37.507812 63.28125 C 47.292969 63.28125 58.585938 63.125 63.078125 62.867188 C 67.574219 62.5625 69.78125 61.90625 71.816406 58.289062 C 73.929688 54.710938 75 48.441406 75 37.527344 C 75 37.527344 75 37.515625 75 37.503906 C 75 37.503906 75 37.496094 75 37.492188 C 75 26.527344 73.929688 20.300781 71.8125 16.6875 Z M 28.125 51.5625 L 28.125 23.4375 L 51.5625 37.5 Z M 28.125 51.5625 "/>
</g>
</svg>
